<mxfile host="app.diagrams.net" modified="2021-03-25T01:41:20.914Z" agent="5.0 (Windows NT 10.0; WOW64) AppleWebKit/537.36 (KHTML, like Gecko) coc_coc_browser/93.0.148 Chrome/87.0.4280.148 Safari/537.36" etag="DoVCEpbhYqEXGZZUbzpD" version="14.5.1" type="github">
  <diagram id="C5RBs43oDa-KdzZeNtuy" name="Page-1">
    <mxGraphModel dx="1621" dy="927" grid="1" gridSize="10" guides="1" tooltips="1" connect="1" arrows="1" fold="1" page="1" pageScale="1" pageWidth="827" pageHeight="1169" math="0" shadow="0">
      <root>
        <mxCell id="WIyWlLk6GJQsqaUBKTNV-0" />
        <mxCell id="WIyWlLk6GJQsqaUBKTNV-1" parent="WIyWlLk6GJQsqaUBKTNV-0" />
        <mxCell id="Y1bEe3JNFUrRnQP0JQ0u-8" value="ParamBasic" style="swimlane;fontStyle=1;align=center;verticalAlign=top;childLayout=stackLayout;horizontal=1;startSize=26;horizontalStack=0;resizeParent=1;resizeParentMax=0;resizeLast=0;collapsible=1;marginBottom=0;" parent="WIyWlLk6GJQsqaUBKTNV-1" vertex="1">
          <mxGeometry x="40" y="30" width="290" height="196" as="geometry">
            <mxRectangle x="310" y="380" width="150" height="26" as="alternateBounds" />
          </mxGeometry>
        </mxCell>
        <mxCell id="Y1bEe3JNFUrRnQP0JQ0u-21" value="&lt;p style=&quot;margin: 6px 0px 0px&quot;&gt;&lt;b&gt;agvParam&lt;/b&gt;&lt;/p&gt;&lt;hr&gt;&lt;p style=&quot;margin: 0px ; margin-left: 8px&quot;&gt;+ L : float&lt;br&gt;+ Lm: float&lt;/p&gt;" style="align=left;overflow=fill;html=1;dropTarget=0;" parent="Y1bEe3JNFUrRnQP0JQ0u-8" vertex="1">
          <mxGeometry y="26" width="290" height="70" as="geometry" />
        </mxCell>
        <mxCell id="Y1bEe3JNFUrRnQP0JQ0u-22" value="" style="shape=component;jettyWidth=8;jettyHeight=4;" parent="Y1bEe3JNFUrRnQP0JQ0u-21" vertex="1">
          <mxGeometry x="1" width="20" height="20" relative="1" as="geometry">
            <mxPoint x="-24" y="4" as="offset" />
          </mxGeometry>
        </mxCell>
        <mxCell id="Y1bEe3JNFUrRnQP0JQ0u-19" value="protected:" style="text;strokeColor=none;fillColor=none;align=left;verticalAlign=top;spacingLeft=4;spacingRight=4;overflow=hidden;rotatable=0;points=[[0,0.5],[1,0.5]];portConstraint=eastwest;fontStyle=0" parent="Y1bEe3JNFUrRnQP0JQ0u-8" vertex="1">
          <mxGeometry y="96" width="290" height="22" as="geometry" />
        </mxCell>
        <mxCell id="Y1bEe3JNFUrRnQP0JQ0u-64" value="+ field: type" style="text;strokeColor=none;fillColor=none;align=left;verticalAlign=top;spacingLeft=4;spacingRight=4;overflow=hidden;rotatable=0;points=[[0,0.5],[1,0.5]];portConstraint=eastwest;" parent="Y1bEe3JNFUrRnQP0JQ0u-8" vertex="1">
          <mxGeometry y="118" width="290" height="26" as="geometry" />
        </mxCell>
        <mxCell id="Y1bEe3JNFUrRnQP0JQ0u-10" value="" style="line;strokeWidth=1;fillColor=none;align=left;verticalAlign=middle;spacingTop=-1;spacingLeft=3;spacingRight=3;rotatable=0;labelPosition=right;points=[];portConstraint=eastwest;" parent="Y1bEe3JNFUrRnQP0JQ0u-8" vertex="1">
          <mxGeometry y="144" width="290" height="8" as="geometry" />
        </mxCell>
        <mxCell id="Y1bEe3JNFUrRnQP0JQ0u-20" value="protected:&#xa;&#xa;" style="text;strokeColor=none;fillColor=none;align=left;verticalAlign=top;spacingLeft=4;spacingRight=4;overflow=hidden;rotatable=0;points=[[0,0.5],[1,0.5]];portConstraint=eastwest;fontStyle=0" parent="Y1bEe3JNFUrRnQP0JQ0u-8" vertex="1">
          <mxGeometry y="152" width="290" height="22" as="geometry" />
        </mxCell>
        <mxCell id="Y1bEe3JNFUrRnQP0JQ0u-41" value="+ agv_get_param(void) = 0 :  virtual void" style="text;strokeColor=none;fillColor=none;align=left;verticalAlign=top;spacingLeft=4;spacingRight=4;overflow=hidden;rotatable=0;points=[[0,0.5],[1,0.5]];portConstraint=eastwest;fontStyle=0" parent="Y1bEe3JNFUrRnQP0JQ0u-8" vertex="1">
          <mxGeometry y="174" width="290" height="22" as="geometry" />
        </mxCell>
        <mxCell id="Y1bEe3JNFUrRnQP0JQ0u-30" value="MetratronikTechnik" style="swimlane;fontStyle=1;align=center;verticalAlign=top;childLayout=stackLayout;horizontal=1;startSize=26;horizontalStack=0;resizeParent=1;resizeParentMax=0;resizeLast=0;collapsible=1;marginBottom=0;" parent="WIyWlLk6GJQsqaUBKTNV-1" vertex="1">
          <mxGeometry x="799" y="392" width="297" height="116" as="geometry" />
        </mxCell>
        <mxCell id="Y1bEe3JNFUrRnQP0JQ0u-62" value="+ param: ParamBasic" style="text;strokeColor=none;fillColor=none;align=left;verticalAlign=top;spacingLeft=4;spacingRight=4;overflow=hidden;rotatable=0;points=[[0,0.5],[1,0.5]];portConstraint=eastwest;" parent="Y1bEe3JNFUrRnQP0JQ0u-30" vertex="1">
          <mxGeometry y="26" width="297" height="26" as="geometry" />
        </mxCell>
        <mxCell id="Y1bEe3JNFUrRnQP0JQ0u-31" value="+ field: type" style="text;strokeColor=none;fillColor=none;align=left;verticalAlign=top;spacingLeft=4;spacingRight=4;overflow=hidden;rotatable=0;points=[[0,0.5],[1,0.5]];portConstraint=eastwest;" parent="Y1bEe3JNFUrRnQP0JQ0u-30" vertex="1">
          <mxGeometry y="52" width="297" height="26" as="geometry" />
        </mxCell>
        <mxCell id="Y1bEe3JNFUrRnQP0JQ0u-32" value="" style="line;strokeWidth=1;fillColor=none;align=left;verticalAlign=middle;spacingTop=-1;spacingLeft=3;spacingRight=3;rotatable=0;labelPosition=right;points=[];portConstraint=eastwest;" parent="Y1bEe3JNFUrRnQP0JQ0u-30" vertex="1">
          <mxGeometry y="78" width="297" height="8" as="geometry" />
        </mxCell>
        <mxCell id="Y1bEe3JNFUrRnQP0JQ0u-74" value="+ calculating(Vt : float, error_angle : float): cmd_ve" style="text;strokeColor=none;fillColor=none;align=left;verticalAlign=top;spacingLeft=4;spacingRight=4;overflow=hidden;rotatable=0;points=[[0,0.5],[1,0.5]];portConstraint=eastwest;" parent="Y1bEe3JNFUrRnQP0JQ0u-30" vertex="1">
          <mxGeometry y="86" width="297" height="30" as="geometry" />
        </mxCell>
        <mxCell id="Y1bEe3JNFUrRnQP0JQ0u-37" value="purePursuite" style="swimlane;fontStyle=1;align=center;verticalAlign=top;childLayout=stackLayout;horizontal=1;startSize=26;horizontalStack=0;resizeParent=1;resizeParentMax=0;resizeLast=0;collapsible=1;marginBottom=0;" parent="WIyWlLk6GJQsqaUBKTNV-1" vertex="1">
          <mxGeometry x="799" y="200" width="290" height="116" as="geometry" />
        </mxCell>
        <mxCell id="Y1bEe3JNFUrRnQP0JQ0u-38" value="+ param: ParamBasic" style="text;strokeColor=none;fillColor=none;align=left;verticalAlign=top;spacingLeft=4;spacingRight=4;overflow=hidden;rotatable=0;points=[[0,0.5],[1,0.5]];portConstraint=eastwest;" parent="Y1bEe3JNFUrRnQP0JQ0u-37" vertex="1">
          <mxGeometry y="26" width="290" height="26" as="geometry" />
        </mxCell>
        <mxCell id="Y1bEe3JNFUrRnQP0JQ0u-63" value="+ field: type" style="text;strokeColor=none;fillColor=none;align=left;verticalAlign=top;spacingLeft=4;spacingRight=4;overflow=hidden;rotatable=0;points=[[0,0.5],[1,0.5]];portConstraint=eastwest;" parent="Y1bEe3JNFUrRnQP0JQ0u-37" vertex="1">
          <mxGeometry y="52" width="290" height="26" as="geometry" />
        </mxCell>
        <mxCell id="Y1bEe3JNFUrRnQP0JQ0u-39" value="" style="line;strokeWidth=1;fillColor=none;align=left;verticalAlign=middle;spacingTop=-1;spacingLeft=3;spacingRight=3;rotatable=0;labelPosition=right;points=[];portConstraint=eastwest;" parent="Y1bEe3JNFUrRnQP0JQ0u-37" vertex="1">
          <mxGeometry y="78" width="290" height="8" as="geometry" />
        </mxCell>
        <mxCell id="Y1bEe3JNFUrRnQP0JQ0u-40" value="+ calculating(Vt : float, error_angle : float): cmd_vel" style="text;strokeColor=none;fillColor=none;align=left;verticalAlign=top;spacingLeft=4;spacingRight=4;overflow=hidden;rotatable=0;points=[[0,0.5],[1,0.5]];portConstraint=eastwest;" parent="Y1bEe3JNFUrRnQP0JQ0u-37" vertex="1">
          <mxGeometry y="86" width="290" height="30" as="geometry" />
        </mxCell>
        <mxCell id="Y1bEe3JNFUrRnQP0JQ0u-43" value="LaserScaner" style="swimlane;fontStyle=1;align=center;verticalAlign=top;childLayout=stackLayout;horizontal=1;startSize=26;horizontalStack=0;resizeParent=1;resizeParentMax=0;resizeLast=0;collapsible=1;marginBottom=0;" parent="WIyWlLk6GJQsqaUBKTNV-1" vertex="1">
          <mxGeometry x="180" y="430" width="360" height="296" as="geometry" />
        </mxCell>
        <mxCell id="Y1bEe3JNFUrRnQP0JQ0u-28" value="&lt;p style=&quot;margin: 0px ; margin-top: 6px ; text-align: center&quot;&gt;lineEquation&lt;/p&gt;&lt;hr&gt;&lt;p style=&quot;margin: 0px ; margin-left: 8px&quot;&gt;+ Gxi : float&amp;nbsp; &amp;nbsp;&lt;/p&gt;&lt;p style=&quot;margin: 0px ; margin-left: 8px&quot;&gt;+ Gyi : float&lt;/p&gt;&lt;p style=&quot;margin: 0px ; margin-left: 8px&quot;&gt;+ Gxj : float&amp;nbsp;&amp;nbsp;&lt;/p&gt;&lt;p style=&quot;margin: 0px ; margin-left: 8px&quot;&gt;+ Gyj : float&lt;/p&gt;&lt;p style=&quot;margin: 0px ; margin-left: 8px&quot;&gt;+ a : float&lt;/p&gt;&lt;p style=&quot;margin: 0px ; margin-left: 8px&quot;&gt;+ b : float&amp;nbsp; &amp;nbsp; &amp;nbsp;&lt;span&gt;&amp;nbsp; &amp;nbsp;&lt;/span&gt;&lt;/p&gt;&lt;p style=&quot;margin: 0px ; margin-left: 8px&quot;&gt;+ c : float&amp;nbsp;&amp;nbsp;&lt;/p&gt;" style="align=left;overflow=fill;html=1;dropTarget=0;" parent="Y1bEe3JNFUrRnQP0JQ0u-43" vertex="1">
          <mxGeometry y="26" width="360" height="144" as="geometry" />
        </mxCell>
        <mxCell id="Y1bEe3JNFUrRnQP0JQ0u-29" value="" style="shape=component;jettyWidth=8;jettyHeight=4;" parent="Y1bEe3JNFUrRnQP0JQ0u-28" vertex="1">
          <mxGeometry x="1" width="20" height="20" relative="1" as="geometry">
            <mxPoint x="-24" y="4" as="offset" />
          </mxGeometry>
        </mxCell>
        <mxCell id="Y1bEe3JNFUrRnQP0JQ0u-44" value="+ field: type" style="text;strokeColor=none;fillColor=none;align=left;verticalAlign=top;spacingLeft=4;spacingRight=4;overflow=hidden;rotatable=0;points=[[0,0.5],[1,0.5]];portConstraint=eastwest;" parent="Y1bEe3JNFUrRnQP0JQ0u-43" vertex="1">
          <mxGeometry y="170" width="360" height="26" as="geometry" />
        </mxCell>
        <mxCell id="Y1bEe3JNFUrRnQP0JQ0u-45" value="" style="line;strokeWidth=1;fillColor=none;align=left;verticalAlign=middle;spacingTop=-1;spacingLeft=3;spacingRight=3;rotatable=0;labelPosition=right;points=[];portConstraint=eastwest;" parent="Y1bEe3JNFUrRnQP0JQ0u-43" vertex="1">
          <mxGeometry y="196" width="360" height="8" as="geometry" />
        </mxCell>
        <mxCell id="Y1bEe3JNFUrRnQP0JQ0u-66" value="public:" style="text;strokeColor=none;fillColor=none;align=left;verticalAlign=top;spacingLeft=4;spacingRight=4;overflow=hidden;rotatable=0;points=[[0,0.5],[1,0.5]];portConstraint=eastwest;" parent="Y1bEe3JNFUrRnQP0JQ0u-43" vertex="1">
          <mxGeometry y="204" width="360" height="26" as="geometry" />
        </mxCell>
        <mxCell id="Y1bEe3JNFUrRnQP0JQ0u-15" value="+ get_present_position(Gxr : float, Gyr : float, Yaw : float) : inline void" style="text;strokeColor=none;fillColor=none;align=left;verticalAlign=top;spacingLeft=4;spacingRight=4;overflow=hidden;rotatable=0;points=[[0,0.5],[1,0.5]];portConstraint=eastwest;fontStyle=0" parent="Y1bEe3JNFUrRnQP0JQ0u-43" vertex="1">
          <mxGeometry y="230" width="360" height="22" as="geometry" />
        </mxCell>
        <mxCell id="Y1bEe3JNFUrRnQP0JQ0u-27" value="+ line_equation_calculate(&amp;param : agvParam) : void" style="text;strokeColor=none;fillColor=none;align=left;verticalAlign=top;spacingLeft=4;spacingRight=4;overflow=hidden;rotatable=0;points=[[0,0.5],[1,0.5]];portConstraint=eastwest;fontStyle=0" parent="Y1bEe3JNFUrRnQP0JQ0u-43" vertex="1">
          <mxGeometry y="252" width="360" height="22" as="geometry" />
        </mxCell>
        <mxCell id="Y1bEe3JNFUrRnQP0JQ0u-65" value="+ Calculate_Error_Angle(float Lm, float Yaw_degree) :  float" style="text;strokeColor=none;fillColor=none;align=left;verticalAlign=top;spacingLeft=4;spacingRight=4;overflow=hidden;rotatable=0;points=[[0,0.5],[1,0.5]];portConstraint=eastwest;fontStyle=0" parent="Y1bEe3JNFUrRnQP0JQ0u-43" vertex="1">
          <mxGeometry y="274" width="360" height="22" as="geometry" />
        </mxCell>
        <mxCell id="Y1bEe3JNFUrRnQP0JQ0u-52" value="Line " style="swimlane;fontStyle=1;align=center;verticalAlign=top;childLayout=stackLayout;horizontal=1;startSize=26;horizontalStack=0;resizeParent=1;resizeParentMax=0;resizeLast=0;collapsible=1;marginBottom=0;" parent="WIyWlLk6GJQsqaUBKTNV-1" vertex="1">
          <mxGeometry x="180" y="823" width="330" height="108" as="geometry" />
        </mxCell>
        <mxCell id="Y1bEe3JNFUrRnQP0JQ0u-53" value="+ field: type" style="text;strokeColor=none;fillColor=none;align=left;verticalAlign=top;spacingLeft=4;spacingRight=4;overflow=hidden;rotatable=0;points=[[0,0.5],[1,0.5]];portConstraint=eastwest;" parent="Y1bEe3JNFUrRnQP0JQ0u-52" vertex="1">
          <mxGeometry y="26" width="330" height="26" as="geometry" />
        </mxCell>
        <mxCell id="Y1bEe3JNFUrRnQP0JQ0u-54" value="" style="line;strokeWidth=1;fillColor=none;align=left;verticalAlign=middle;spacingTop=-1;spacingLeft=3;spacingRight=3;rotatable=0;labelPosition=right;points=[];portConstraint=eastwest;" parent="Y1bEe3JNFUrRnQP0JQ0u-52" vertex="1">
          <mxGeometry y="52" width="330" height="8" as="geometry" />
        </mxCell>
        <mxCell id="Y1bEe3JNFUrRnQP0JQ0u-68" value="public:" style="text;strokeColor=none;fillColor=none;align=left;verticalAlign=top;spacingLeft=4;spacingRight=4;overflow=hidden;rotatable=0;points=[[0,0.5],[1,0.5]];portConstraint=eastwest;" parent="Y1bEe3JNFUrRnQP0JQ0u-52" vertex="1">
          <mxGeometry y="60" width="330" height="26" as="geometry" />
        </mxCell>
        <mxCell id="Y1bEe3JNFUrRnQP0JQ0u-69" value="+ Calculate_Error_Angle(float Lm) :  float" style="text;strokeColor=none;fillColor=none;align=left;verticalAlign=top;spacingLeft=4;spacingRight=4;overflow=hidden;rotatable=0;points=[[0,0.5],[1,0.5]];portConstraint=eastwest;fontStyle=0" parent="Y1bEe3JNFUrRnQP0JQ0u-52" vertex="1">
          <mxGeometry y="86" width="330" height="22" as="geometry" />
        </mxCell>
        <mxCell id="Y1bEe3JNFUrRnQP0JQ0u-71" value="return" style="html=1;verticalAlign=bottom;endArrow=open;dashed=1;endSize=8;exitX=1;exitY=0.5;exitDx=0;exitDy=0;entryX=0;entryY=0.5;entryDx=0;entryDy=0;" parent="WIyWlLk6GJQsqaUBKTNV-1" source="Y1bEe3JNFUrRnQP0JQ0u-69" target="Y1bEe3JNFUrRnQP0JQ0u-40" edge="1">
          <mxGeometry x="-0.7664" y="17" relative="1" as="geometry">
            <mxPoint x="770" y="880" as="sourcePoint" />
            <mxPoint x="720" y="530" as="targetPoint" />
            <Array as="points">
              <mxPoint x="690" y="920" />
              <mxPoint x="690" y="880" />
              <mxPoint x="690" y="301" />
            </Array>
            <mxPoint as="offset" />
          </mxGeometry>
        </mxCell>
        <mxCell id="Y1bEe3JNFUrRnQP0JQ0u-72" value="return" style="html=1;verticalAlign=bottom;endArrow=open;dashed=1;endSize=8;exitX=1;exitY=0.5;exitDx=0;exitDy=0;" parent="WIyWlLk6GJQsqaUBKTNV-1" source="Y1bEe3JNFUrRnQP0JQ0u-65" edge="1">
          <mxGeometry relative="1" as="geometry">
            <mxPoint x="690" y="600" as="sourcePoint" />
            <mxPoint x="690" y="715" as="targetPoint" />
            <Array as="points" />
          </mxGeometry>
        </mxCell>
        <mxCell id="Y1bEe3JNFUrRnQP0JQ0u-73" value="error_angle&lt;br&gt;" style="text;html=1;strokeColor=none;fillColor=none;align=center;verticalAlign=middle;whiteSpace=wrap;rounded=0;rotation=270;" parent="WIyWlLk6GJQsqaUBKTNV-1" vertex="1">
          <mxGeometry x="650" y="520" width="40" height="20" as="geometry" />
        </mxCell>
        <mxCell id="Y1bEe3JNFUrRnQP0JQ0u-75" value="speedControl" style="swimlane;fontStyle=1;align=center;verticalAlign=top;childLayout=stackLayout;horizontal=1;startSize=26;horizontalStack=0;resizeParent=1;resizeParentMax=0;resizeLast=0;collapsible=1;marginBottom=0;" parent="WIyWlLk6GJQsqaUBKTNV-1" vertex="1">
          <mxGeometry x="799" y="853" width="310" height="86" as="geometry" />
        </mxCell>
        <mxCell id="Y1bEe3JNFUrRnQP0JQ0u-76" value="+ field: type" style="text;strokeColor=none;fillColor=none;align=left;verticalAlign=top;spacingLeft=4;spacingRight=4;overflow=hidden;rotatable=0;points=[[0,0.5],[1,0.5]];portConstraint=eastwest;" parent="Y1bEe3JNFUrRnQP0JQ0u-75" vertex="1">
          <mxGeometry y="26" width="310" height="26" as="geometry" />
        </mxCell>
        <mxCell id="Y1bEe3JNFUrRnQP0JQ0u-77" value="" style="line;strokeWidth=1;fillColor=none;align=left;verticalAlign=middle;spacingTop=-1;spacingLeft=3;spacingRight=3;rotatable=0;labelPosition=right;points=[];portConstraint=eastwest;" parent="Y1bEe3JNFUrRnQP0JQ0u-75" vertex="1">
          <mxGeometry y="52" width="310" height="8" as="geometry" />
        </mxCell>
        <mxCell id="Y1bEe3JNFUrRnQP0JQ0u-78" value="+ Ham_bac_nhat(type): float" style="text;strokeColor=none;fillColor=none;align=left;verticalAlign=top;spacingLeft=4;spacingRight=4;overflow=hidden;rotatable=0;points=[[0,0.5],[1,0.5]];portConstraint=eastwest;" parent="Y1bEe3JNFUrRnQP0JQ0u-75" vertex="1">
          <mxGeometry y="60" width="310" height="26" as="geometry" />
        </mxCell>
        <mxCell id="Y1bEe3JNFUrRnQP0JQ0u-79" value="return" style="html=1;verticalAlign=bottom;endArrow=open;dashed=1;endSize=8;exitX=-0.004;exitY=0.276;exitDx=0;exitDy=0;exitPerimeter=0;" parent="WIyWlLk6GJQsqaUBKTNV-1" source="Y1bEe3JNFUrRnQP0JQ0u-78" edge="1">
          <mxGeometry x="-0.9187" y="-11" relative="1" as="geometry">
            <mxPoint x="790" y="680" as="sourcePoint" />
            <mxPoint x="730" y="300" as="targetPoint" />
            <Array as="points">
              <mxPoint x="730" y="920" />
              <mxPoint x="730" y="677" />
            </Array>
            <mxPoint as="offset" />
          </mxGeometry>
        </mxCell>
        <mxCell id="Y1bEe3JNFUrRnQP0JQ0u-80" value="Vt" style="text;html=1;strokeColor=none;fillColor=none;align=center;verticalAlign=middle;whiteSpace=wrap;rounded=0;rotation=270;" parent="WIyWlLk6GJQsqaUBKTNV-1" vertex="1">
          <mxGeometry x="690" y="520" width="40" height="20" as="geometry" />
        </mxCell>
        <mxCell id="jTAjqoJvBVcKNJrvRw4M-0" value="Class other" style="swimlane;fontStyle=1;align=center;verticalAlign=top;childLayout=stackLayout;horizontal=1;startSize=26;horizontalStack=0;resizeParent=1;resizeParentMax=0;resizeLast=0;collapsible=1;marginBottom=0;" vertex="1" parent="WIyWlLk6GJQsqaUBKTNV-1">
          <mxGeometry x="452.81999999999994" y="78" width="210" height="86" as="geometry" />
        </mxCell>
        <mxCell id="jTAjqoJvBVcKNJrvRw4M-1" value="+ field: type" style="text;strokeColor=none;fillColor=none;align=left;verticalAlign=top;spacingLeft=4;spacingRight=4;overflow=hidden;rotatable=0;points=[[0,0.5],[1,0.5]];portConstraint=eastwest;" vertex="1" parent="jTAjqoJvBVcKNJrvRw4M-0">
          <mxGeometry y="26" width="210" height="26" as="geometry" />
        </mxCell>
        <mxCell id="jTAjqoJvBVcKNJrvRw4M-2" value="" style="line;strokeWidth=1;fillColor=none;align=left;verticalAlign=middle;spacingTop=-1;spacingLeft=3;spacingRight=3;rotatable=0;labelPosition=right;points=[];portConstraint=eastwest;" vertex="1" parent="jTAjqoJvBVcKNJrvRw4M-0">
          <mxGeometry y="52" width="210" height="8" as="geometry" />
        </mxCell>
        <mxCell id="jTAjqoJvBVcKNJrvRw4M-3" value="+ method(type): type" style="text;strokeColor=none;fillColor=none;align=left;verticalAlign=top;spacingLeft=4;spacingRight=4;overflow=hidden;rotatable=0;points=[[0,0.5],[1,0.5]];portConstraint=eastwest;" vertex="1" parent="jTAjqoJvBVcKNJrvRw4M-0">
          <mxGeometry y="60" width="210" height="26" as="geometry" />
        </mxCell>
        <mxCell id="jTAjqoJvBVcKNJrvRw4M-5" value="" style="endArrow=none;html=1;edgeStyle=orthogonalEdgeStyle;exitX=1;exitY=0.5;exitDx=0;exitDy=0;entryX=-0.013;entryY=-0.066;entryDx=0;entryDy=0;entryPerimeter=0;" edge="1" parent="WIyWlLk6GJQsqaUBKTNV-1" source="Y1bEe3JNFUrRnQP0JQ0u-19" target="jTAjqoJvBVcKNJrvRw4M-3">
          <mxGeometry relative="1" as="geometry">
            <mxPoint x="420" y="190" as="sourcePoint" />
            <mxPoint x="580" y="190" as="targetPoint" />
          </mxGeometry>
        </mxCell>
        <mxCell id="jTAjqoJvBVcKNJrvRw4M-6" value="parent" style="edgeLabel;resizable=0;html=1;align=left;verticalAlign=bottom;" connectable="0" vertex="1" parent="jTAjqoJvBVcKNJrvRw4M-5">
          <mxGeometry x="-1" relative="1" as="geometry" />
        </mxCell>
        <mxCell id="jTAjqoJvBVcKNJrvRw4M-7" value="child" style="edgeLabel;resizable=0;html=1;align=right;verticalAlign=bottom;" connectable="0" vertex="1" parent="jTAjqoJvBVcKNJrvRw4M-5">
          <mxGeometry x="1" relative="1" as="geometry" />
        </mxCell>
        <mxCell id="jTAjqoJvBVcKNJrvRw4M-8" value="Use" style="endArrow=open;endSize=12;dashed=1;html=1;exitX=1;exitY=0.5;exitDx=0;exitDy=0;" edge="1" parent="WIyWlLk6GJQsqaUBKTNV-1" source="Y1bEe3JNFUrRnQP0JQ0u-63">
          <mxGeometry width="160" relative="1" as="geometry">
            <mxPoint x="1120" y="120.41" as="sourcePoint" />
            <mxPoint x="720" y="120.41" as="targetPoint" />
            <Array as="points">
              <mxPoint x="1120" y="265" />
              <mxPoint x="1120" y="120" />
            </Array>
          </mxGeometry>
        </mxCell>
        <mxCell id="jTAjqoJvBVcKNJrvRw4M-9" value="" style="endArrow=none;dashed=1;html=1;dashPattern=1 3;strokeWidth=2;" edge="1" parent="WIyWlLk6GJQsqaUBKTNV-1">
          <mxGeometry width="50" height="50" relative="1" as="geometry">
            <mxPoint x="29" y="280" as="sourcePoint" />
            <mxPoint x="20" y="280" as="targetPoint" />
            <Array as="points">
              <mxPoint x="720" y="280" />
              <mxPoint x="720" y="20" />
              <mxPoint x="20" y="20" />
            </Array>
          </mxGeometry>
        </mxCell>
        <mxCell id="jTAjqoJvBVcKNJrvRw4M-10" value="" style="endArrow=none;dashed=1;html=1;dashPattern=1 3;strokeWidth=2;exitX=0.994;exitY=-0.016;exitDx=0;exitDy=0;exitPerimeter=0;" edge="1" parent="WIyWlLk6GJQsqaUBKTNV-1" source="Y1bEe3JNFUrRnQP0JQ0u-31">
          <mxGeometry width="50" height="50" relative="1" as="geometry">
            <mxPoint x="610" y="460" as="sourcePoint" />
            <mxPoint x="1120" y="260" as="targetPoint" />
            <Array as="points">
              <mxPoint x="1120" y="444" />
            </Array>
          </mxGeometry>
        </mxCell>
      </root>
    </mxGraphModel>
  </diagram>
</mxfile>
